#!OML:ASF H:\Terrain\Patient Classification 1\Walking\steve\steve.ASF
:FULLY-SPECIFIED
:DEGREES
181
root 9.05676 16.2249 -2.7515 7.02369 -2.96637 2.49898
lowerback 0.27994 1.16208 -5.74591
upperback -2.7366 1.41693 -0.931467
thorax -3.10029 0.838754 2.21254
lowerneck -6.79789 -0.105083 -2.20804
upperneck 15.1453 -0.398676 3.50519
head 5.69604 -0.0675878 1.43882
rclavicle 1.40392e-014 -5.76476e-015
rhumerus -58.0422 -8.44937 -75.9579
rradius 26.4668
rwrist 8.18503
rhand -10.1875 -35.0741
rfingers 7.12502
rthumb 15.803 -64.4491
lclavicle 1.40392e-014 -5.76476e-015
lhumerus -10.7461 -8.73902 82.5391
lradius 30.9533
lwrist 11.2221
lhand -26.7035 -19.3137
lfingers 7.12502
lthumb -0.13371 10.6661
rfemur -40.2889 0.603921 21.251
rtibia 43.8095
rfoot -18.434 -0.700777
rtoes -12.7242
lfemur -4.95246 0.0887507 -27.5442
ltibia 25.1394
lfoot -21.6505 -3.7759
ltoes 5.46644
182
root 9.05706 16.2166 -2.58365 6.82273 -2.55347 2.57874
lowerback 0.331786 1.01616 -5.73863
upperback -2.7171 1.22066 -0.888429
thorax -3.09395 0.740844 2.25897
lowerneck -6.87958 -0.0945085 -2.10722
upperneck 15.5783 -0.399332 3.45944
head 5.84558 -0.0629439 1.41071
rclavicle 1.47473e-014 -2.98177e-015
rhumerus -58.5523 -9.09622 -75.0962
rradius 26.2435
rwrist 8.83866
rhand -12.1563 -33.8537
rfingers 7.12502
rthumb 13.9064 -63.3687
lclavicle 1.47473e-014 -2.98177e-015
lhumerus -10.0453 -9.78448 82.6757
lradius 31.625
lwrist 11.3695
lhand -27.106 -19.6708
lfingers 7.12502
lthumb -0.522452 10.3083
rfemur -40.7902 0.178201 21.3348
rtibia 42.3279
rfoot -17.8245 -0.300406
rtoes -10.0485
lfemur -3.31668 0.343541 -27.5388
ltibia 23.7237
lfoot -21.2673 -4.2628
ltoes 4.51657
183
root 9.05155 16.1977 -2.42877 6.80019 -1.86612 2.61305
lowerback 0.497877 0.773034 -5.77443
upperback -2.79357 0.884089 -0.76663
thorax -3.24234 0.581081 2.41307
lowerneck -7.00332 -0.033005 -1.9422
upperneck 15.88 -0.314593 3.28438
head 5.95919 -0.0226952 1.3363
rclavicle -5.15598e-015 -7.95139e-016
rhumerus -59.0768 -9.70717 -74.105
rradius 26.0359
rwrist 9.46877
rhand -14.1462 -32.4479
rfingers 7.12502
rthumb 11.9881 -62.0846
lclavicle -5.15598e-015 -7.95139e-016
lhumerus -9.32047 -10.6629 82.8394
lradius 32.369
lwrist 11.6217
lhand -26.6253 -19.488
lfingers 7.12502
lthumb -0.0581434 10.4917
rfemur -41.4646 -0.0924025 21.3916
rtibia 40.8996
rfoot -17.6211 0.017058
rtoes -6.16271
lfemur -1.95099 0.683839 -27.3602
ltibia 22.2296
lfoot -20.266 -5.15408
ltoes 5.38036
184
root 9.05039 16.185 -2.25851 6.71748 -1.43362 2.88718
lowerback 0.335957 0.597424 -5.92553
upperback -2.71013 0.661702 -0.766834
thorax -3.04776 0.467372 2.50774
lowerneck -6.74325 -0.0206661 -2.0182
upperneck 15.6425 -0.293099 3.32873
head 5.83894 -0.0165566 1.36224
rclavicle -8.75895e-016 -1.19271e-015
rhumerus -59.3501 -10.3897 -73.1233
rradius 25.6187
rwrist 10.2329
rhand -14.2085 -31.6668
rfingers 7.12502
rthumb 11.928 -61.307
lclavicle -8.75895e-016 -1.19271e-015
lhumerus -8.4612 -12.0126 82.8129
lradius 33.0411
lwrist 12.0541
lhand -26.0836 -19.5449
lfingers 7.12502
lthumb 0.465033 10.4343
rfemur -42.0998 -0.423566 21.2132
rtibia 39.5214
rfoot -17.0712 0.127036
rtoes -5.7617
lfemur -0.541588 0.779689 -27.5526
ltibia 20.9347
lfoot -19.6887 -5.39001
ltoes 5.07123
185
root 9.05168 16.1708 -2.08463 6.64359 -1.18791 3.21858
lowerback 0.033857 0.454736 -6.03317
upperback -2.58296 0.494733 -0.864298
thorax -2.73096 0.374288 2.47592
lowerneck -6.52956 0.00353344 -2.08209
upperneck 15.4866 -0.273148 3.46612
head 5.75253 -0.00315624 1.41595
rclavicle 6.34869e-015 4.96962e-015
rhumerus -59.472 -10.6837 -72.6954
rradius 25.2444
rwrist 10.5492
rhand -12.7437 -32.5843
rfingers 7.12502
rthumb 13.3403 -62.1372
lclavicle 6.34869e-015 4.96962e-015
lhumerus -7.49968 -12.9738 82.6081
lradius 33.632
lwrist 12.1468
lhand -26.268 -19.8692
lfingers 7.12502
lthumb 0.286944 10.1103
rfemur -42.7585 -0.66668 20.9354
rtibia 38.2068
rfoot -16.5246 0.156509
rtoes -10.4754
lfemur 0.875856 0.782798 -27.8779
ltibia 19.6794
lfoot -19.5384 -5.37879
ltoes 4.95476
186
root 9.05662 16.1513 -1.91672 6.60085 -0.685926 3.60155
lowerback -0.0571665 0.230955 -6.14361
upperback -2.56384 0.199778 -0.986008
thorax -2.63427 0.225106 2.41989
lowerneck -6.03621 -0.0090382 -1.89425
upperneck 15.1646 -0.282106 3.26784
head 5.5672 -0.016493 1.31856
rclavicle 1.09704e-014 -1.0138e-014
rhumerus -59.8301 -10.8704 -72.4389
rradius 25.1336
rwrist 10.6324
rhand -8.16584 -34.8907
rfingers 7.12502
rthumb 17.7493 -64.1007
lclavicle 1.09704e-014 -1.0138e-014
lhumerus -6.62755 -13.8574 82.4095
lradius 34.2476
lwrist 12.4663
lhand -26.4799 -19.5805
lfingers 7.12502
lthumb 0.0822285 10.3993
rfemur -43.4084 -1.02797 20.4969
rtibia 37.0945
rfoot -16.7361 0.572056
rtoes -11.7987
lfemur 2.41223 0.84475 -28.151
ltibia 18.122
lfoot -19.0134 -6.06746
ltoes 6.7534
187
root 9.05299 16.1341 -1.76293 6.807 -0.206921 3.60345
lowerback -0.101139 0.0840743 -6.02748
upperback -2.72234 0.00242869 -0.975993
thorax -2.75589 0.130729 2.36948
lowerneck -5.96929 -0.073342 -1.77374
upperneck 15.2989 -0.384762 3.24744
head 5.60027 -0.0610914 1.28617
rclavicle 1.36323e-014 -1.35174e-014
rhumerus -60.3617 -11.7537 -71.5311
rradius 24.8896
rwrist 11.6217
rhand -1.87402 -35.571
rfingers 7.12502
rthumb 23.7942 -64.1176
lclavicle 1.36323e-014 -1.35174e-014
lhumerus -6.04992 -15.1938 82.24
lradius 35.134
lwrist 12.8718
lhand -26.2364 -18.7652
lfingers 7.12502
lthumb 0.317428 11.2143
rfemur -44.3194 -0.737524 20.232
rtibia 36.0226
rfoot -17.1691 0.916189
rtoes -4.11898
lfemur 3.65489 0.689676 -27.9808
ltibia 16.4128
lfoot -18.1073 -6.6065
ltoes 8.47342
188
root 9.05021 16.1137 -1.61003 6.88495 0.618994 4.13387
lowerback -0.0129456 -0.162952 -6.33701
upperback -2.76647 -0.34303 -1.09454
thorax -2.82285 -0.0328868 2.42796
lowerneck -6.44454 -0.0790889 -2.07226
upperneck 15.9196 -0.444186 3.75058
head 5.87858 -0.0638922 1.49528
rclavicle 2.35746e-015 4.67144e-015
rhumerus -60.6669 -12.5718 -70.6326
rradius 24.5472
rwrist 12.558
rhand -7.9271 -37.2739
rfingers 7.12502
rthumb 17.979 -66.4629
lclavicle 2.35746e-015 4.67144e-015
lhumerus -5.43355 -16.3352 82.0553
lradius 36.0755
lwrist 12.9309
lhand -25.6133 -18.5677
lfingers 7.12502
lthumb 0.91927 11.4101
rfemur -45.0908 -1.01925 19.4294
rtibia 35.1085
rfoot -17.5173 1.36827
rtoes -6.11818
lfemur 5.23287 0.28394 -28.3834
ltibia 14.3633
lfoot -17.2484 -6.72534
ltoes 8.56669
189
root 9.05091 16.0836 -1.42907 6.85094 0.767257 4.36664
lowerback -0.294792 -0.279281 -6.43612
upperback -2.69677 -0.473213 -1.08382
thorax -2.57957 -0.103861 2.49566
lowerneck -6.27173 -0.0344571 -2.37197
upperneck 15.9044 -0.390418 4.01658
head 5.84227 -0.0379028 1.63238
rclavicle -3.31722e-015 1.16289e-014
rhumerus -60.8575 -12.598 -70.2979
rradius 24.4013
rwrist 12.5175
rhand -12.8374 -36.4739
rfingers 7.12502
rthumb 13.2499 -66.0328
lclavicle -3.31722e-015 1.16289e-014
lhumerus -4.73868 -17.1182 81.8095
lradius 36.9011
lwrist 13.4322
lhand -25.1457 -19.1176
lfingers 7.12502
lthumb 1.37085 10.8577
rfemur -45.6679 -0.665187 18.9698
rtibia 34.1327
rfoot -17.7369 1.58973
rtoes -6.91139
lfemur 7.08796 0.252873 -28.5995
ltibia 12.2376
lfoot -16.9911 -6.32621
ltoes 7.12231
